<?xml version="1.0" encoding="UTF-8"?>
<svg width="6392.9pt" height="2427.8pt" preserveAspectRatio="xMidYMid" version="1.0" viewBox="0 0 6392.9 2427.8" xmlns="http://www.w3.org/2000/svg">
<g transform="matrix(.1 0 0 -.1 -.36731 2429.2)">
<path d="m51892 24012c-91-361-102-434-109-712-6-240 3-397 38-630 119-815 511-1847 1175-3096 285-538 454-829 1096-1897 274-455 499-832 501-836 3-11-448-360-538-416-504-315-862-101-1433 858-54 89-187 323-297 519-110 197-203 358-206 358s-9-145-13-322c-7-345-29-861-47-1123-17-237 6-512 77-935 29-171 35-232 31-300-15-273-153-405-1232-1180-449-322-606-430-626-430-51 0-96 92-123 250-26 160-35 288-51 725-16 449-33 703-65 960-86 702-255 1085-524 1187-51 19-79 23-166 22-89-1-119-6-200-32-209-69-423-206-810-516-273-219-572-482-960-840-276-257-1139-1119-1391-1391-1361-1470-2073-2577-2458-3823-155-503-258-1046-322-1697-29-302-37-755-16-879 16-89 39-138 69-144s70 42 118 141c59 124 102 251 181 541 92 334 182 562 364 921 717 1410 2261 3303 3760 4610 595 520 1039 835 1372 977 352 149 585 117 664-90 15-41 23-95 30-193 9-145 25-268 65-488 38-212 31-267-48-426-138-276-450-651-1158-1390-632-660-1040-1127-1506-1725-291-373-437-588-641-940-631-1089-811-1628-897-2690-48-591-57-1039-63-3281l-5-2056 283-292c155-161 326-329 378-373 421-352 970-566 1641-640 171-18 639-16 830 5 860 95 1679 389 2445 877 624 398 1279 1039 1876 1835 437 583 868 1275 1274 2045 306 580 402 761 560 1051 802 1466 1501 2536 2109 3229 56 63 276 291 489 507l389 392-120 233c-66 128-239 469-384 758-256 507-403 786-436 823-8 9-21 17-29 17-56 0-700-310-1163-560-619-334-1233-649-1375-705-90-36-142-43-151-22-3 9 11 47 34 89 23 40 54 121 71 179 152 526 324 2045 308 2717-5 222-16 296-46 311-39 21-230-79-409-213-182-137-228-207-226-341 1-83 14-128 112-401 106-292 100-492-24-802-53-132-270-572-400-809-595-1085-1491-2203-2479-3093-671-604-1095-1132-1400-1742-253-507-403-1038-480-1696-12-108-105-1397-105-1467 0-11 105 198 234 465 128 267 267 545 310 618 697 1210 2329 2673 4576 4102 264 168 423 266 883 543l357 217-544-1088c-662-1320-831-1638-1191-2237-990-1648-1900-2585-3103-3193-627-318-1223-501-1877-579-188-22-732-25-895-5-659 82-1141 280-1558 642-99 86-286 288-355 385-106 149-171 322-199 535-18 131-18 1309 0 1500 54 578 167 939 512 1635 844 1700 1984 3048 3825 4521 1271 1017 2765 2035 5285 3604 3168 1972 4410 2831 5430 3754 306 278 589 567 705 722 143 189 195 389 181 694-5 117-79 1136-88 1229-3 22-62-26-488-389-267-227-548-464-625-525-1156-920-4356-3097-4518-3073-12 2-41 31-71 73-308 431-1855 2973-2833 4655-446 767-631 1100-883 1590-106 206-195 378-199 382-4 5-39-121-79-280z"/>
<path d="m49717 21086c-162-58-229-210-257-583-17-216-7-1010 13-1113 42-213 127-284 402-335 188-35 883-193 1019-232 202-58 267-10 310 229 35 190 60 702 54 1073-4 226-7 257-27 320-41 123-104 193-240 264-99 51-580 247-748 305-236 80-428 107-526 72z"/>
<path d="m45927 18968c-11-95-46-479-62-678-25-330-67-1182-58-1190 4-4 186-56 403-115 473-129 753-212 1035-306 226-76 253-79 294-35 57 61 78 267 63 621-20 467-65 1380-68 1384-1 1-177 48-391 103-471 120-1125 268-1188 268-19 0-23-7-28-52z"/>
<path d="m1985 18489c-1143-19-1826-62-1955-122-37-18-35-40 6-80 73-70 249-138 447-172 329-57 697-284 820-506 137-248 179-707 208-2289 6-322 13-2369 16-4659l5-4083 2477 5c1425 3 2603 10 2776 16 1136 40 1495 102 1682 293 266 272 612 1037 798 1761 92 362 107 598 40 629-54 24-125-54-285-313-196-317-371-541-610-779-91-91-212-203-270-250-215-171-467-320-661-388-225-79-627-136-1244-177-455-30-738-35-1877-35h-1158v83c0 118-88 4586-94 4790l-5 167h1222c1367 1 2710 14 2982 30 316 18 478 50 536 106 17 16 32 46 40 77 15 63 7 239-13 287-45 106-185 152-553 180-232 18-1307 29-2792 30h-1403v4662l1433-5c1340-5 1607-10 1962-37 942-71 1397-253 1667-664 118-179 187-355 288-730 89-334 154-503 224-580 86-97 148-29 192 209 27 143 27 789 1 1040-45 427-99 660-197 856-60 118-111 190-204 287-341 356-539 373-4201 370-1012-1-2047-5-2300-9z"/>
<path d="m20605 18079c-233-34-384-134-469-312-70-146-91-242-91-427 1-169 14-254 65-406 66-194 174-369 315-509 149-150 293-230 470-262 99-17 191-10 300 24 317 100 523 320 581 620 49 258-32 573-224 862-119 181-277 298-492 365-154 49-316 65-455 45z"/>
<path d="m63650 16176c-200-74-787-451-1355-871-864-639-2533-1670-3320-2051-209-101-275-124-359-124-124 0-212 73-277 230-201 481-1139 2060-1310 2204-33 28-40 28-134 0-225-68-687-395-887-630-69-81-118-164-118-199 0-12 66-132 146-266 81-134 192-323 249-419 56-96 167-281 247-410 1614-2619 2577-4790 2743-6185 16-129 33-608 35-945 1-110 5-168 10-155 13 29 177 947 195 1090 91 719 83 2125-16 2995-33 297-81 543-124 647-41 97-6 193 114 317 155 159 432 347 1051 713 763 450 1785 1143 2370 1608 63 50 211 173 328 274 463 397 613 573 667 781 25 97 33 246 24 440-25 501-113 905-209 955-16 8-30 15-32 14-2 0-19-6-38-13z"/>
<path d="m14378 15209c-229-13-382-46-512-111-127-64-482-281-736-451-201-134-254-159-336-161-84-1-170 43-362 189-85 63-179 133-210 154-210 142-473 214-877 240-548 35-1188 14-1490-48-162-33-249-86-223-134 37-71 213-134 571-207 273-55 412-111 538-215 125-105 221-283 253-470 59-344 103-1060 136-2220 5-176 14-1411 21-2745 6-1334 13-2431 15-2437 5-19 1613-19 1618 0 3 6 12 820 20 1807 24 2637 63 5241 79 5256 35 34 725 486 802 526 208 108 470 193 678 218 153 19 425 8 557-23 497-118 895-449 1165-970 198-383 281-767 315-1462 5-121 12-251 14-290 3-38 10-882 16-1875s14-2122 18-2510l7-705 775 49c426 27 779 52 783 56 10 8-9 3622-23 4505-27 1673-79 2044-365 2630-129 264-326 536-550 760-213 213-340 292-620 384-406 133-1028 233-1620 261-240 11-256 11-457-1z"/>
<path d="m26110 15199c-410-25-792-88-1052-173-113-37-337-138-459-208-287-162-484-372-570-607-58-159-69-239-79-551-5-157-14-337-21-400-6-63-12-126-12-139-3-34 43-63 145-92 70-20 106-24 233-24 148 0 151 1 216 31 139 66 240 200 339 449 195 490 559 803 1085 934 168 42 299 55 535 55 309-1 577-39 904-129 163-44 213-72 306-165 299-300 570-1029 694-1865 62-421 78-716 43-808-28-70-63-82-162-52-324 99-1984-80-2930-316-510-127-942-357-1251-666-324-324-504-726-580-1298-21-160-24-533-5-680 94-734 469-1303 1117-1696 295-180 561-269 964-326 179-25 686-25 890 0 464 58 861 171 1202 344 70 35 290 170 490 300 200 129 368 237 374 240 6 2 80-85 164-194 85-109 179-224 209-256 111-117 252-205 421-261 248-82 465-69 584 35 70 62 85 104 96 265 42 604 27 4278-20 5149-42 759-116 1077-374 1595-390 782-738 1138-1296 1323-271 91-582 142-1065 177-198 15-952 21-1135 9zm2337-5391c-5-947-9-1075-43-1270-27-160-84-307-165-424-99-144-468-521-641-655-99-76-221-140-313-165-84-22-287-29-435-15-413 39-610 84-849 197-444 210-742 580-846 1054-22 100-31 388-16 505 86 650 570 1208 1275 1470 301 112 810 202 1261 225 399 20 559 27 669 29l108 1z"/>
<path d="m19610 15079c-485-18-830-80-830-149 0-5 13-24 30-43 65-74 251-145 530-201 430-87 616-202 745-461 56-113 78-200 104-407 150-1196 176-5672 46-7738-44-695-84-923-232-1310-149-392-334-694-560-911-147-141-270-219-498-313-265-110-343-236-194-312 146-73 464-75 859-4 921 166 1602 662 1913 1392 126 295 192 535 236 863 96 705 114 1668 109 6060l-3 2909-247 196c-272 216-368 274-540 329-194 61-397 87-808 101-301 11-357 10-660-1z"/>
<path d="m34190 15079c-1095-12-1498-45-1790-148-61-21-142-58-181-81-183-108-394-300-468-423-46-77-87-202-106-322-34-209-37-812-5-1040 24-171 60-264 111-285 78-33 176 108 320 457 102 249 184 379 328 524 346 348 917 509 2011 569 239 13 845 13 1025 0 254-19 416-57 430-100 27-85-416-918-1212-2280-878-1503-1770-2944-2538-4100-379-570-444-681-480-820-18-70-19-100-3-154 36-120 206-193 548-236 418-52 888-60 3814-60h2478l-6 33c-3 17-17 120-31 228-33 253-44 291-104 349-67 66-182 97-436 120-209 19-1211 30-2030 24-513-4-981-2-1335 6-595 13-732 20-737 35-12 36 705 1238 2724 4570 347 572 919 1510 1272 2084 352 574 641 1048 641 1052 0 10-3303 9-4240-2z"/>
<path d="m56371 6504c-134-36-195-120-231-319-29-161-35-975-9-1215 22-191 80-309 189-381 119-79 279-122 755-203 176-31 437-78 580-105s261-48 262-47 14 168 28 372c13 203 29 416 35 474 21 221 30 495 20 625-26 356-129 502-425 599-86 28-461 118-667 160-272 56-433 68-537 40z"/>
<path d="m60150 5293c-253-615-298-731-355-923-102-343-155-704-155-1054 0-111 43-955 56-1091l5-60 575 49c316 27 578 46 581 42 4-4-8-509-26-1122-18-614-31-1118-29-1120s53 167 112 374c114 397 356 1139 474 1452 38 102 79 223 90 270 49 195 90 477 123 835 13 144 25 1505 12 1505-24 0-558-98-826-151-169-34-310-60-312-57-3 3-21 252-40 554-48 756-65 1007-69 1011-2 2-99-229-216-514z"/>
<path d="m36830 5012c0-5 24-41 53-81 125-173 150-213 211-336 76-151 147-329 200-500 20-66 49-150 62-187 46-123 59-108 79 87 26 266 91 438 195 510 25 17 59 50 77 73 81 106 105 302 37 302-23 0-81-59-127-129-65-97-107-131-163-131-77 0-202 76-399 242-172 145-225 180-225 150z"/>
<path d="m23717 4997c-63-19-97-51-97-94 0-50 22-85 72-113 40-23 50-25 143-20 322 15 447 2 536-57 41-27 79-92 79-137 0-116-145-158-414-121-144 20-263 16-340-11-64-22-128-86-149-149-25-73-22-109 11-135 25-21 35-22 127-17 69 4 147 18 255 45 498 128 715 285 646 466-45 118-264 257-501 316-142 36-295 47-368 27z"/>
<path d="m33945 4981c-90-40-121-122-67-173 49-47 126-61 296-55 155 5 217 17 249 45 47 42-16 95-192 160-130 49-215 56-286 23z"/>
<path d="m35574 4976c-47-21-58-59-51-179 12-217 153-806 203-848 36-30 50 42 63 321 8 166 13 207 35 275 44 136 80 187 176 248 86 56 25 109-185 162-126 32-202 39-241 21z"/>
<path d="m27930 4964c-78-20-186-76-248-127-260-215-271-576-26-836 82-88 201-171 290-203 157-57 315-1 474 168 116 123 174 264 174 424 0 166-60 315-174 430-135 136-318 190-490 144zm278-168c104-53 165-131 197-251 27-107 13-251-36-346-109-214-403-263-584-97-40 36-67 73-98 136l-42 85v116c0 113 1 118 34 179 39 73 77 107 172 157 87 46 128 55 224 51 63-3 92-9 133-30z"/>
<path d="m30420 4907c-33-16-60-72-60-123 0-23 10-73 21-110 57-181 4-243-211-252-226-9-380 63-380 177 0 68 58 128 178 183 111 51 128 78 67 104-48 20-204 19-253-2-122-51-160-188-149-549 3-110 11-237 17-283 18-142 47-196 71-135 58 143 113 211 223 277 73 44 144 71 235 90 92 19 177 64 251 133 146 135 221 319 175 429-24 58-124 92-185 61z"/>
<path d="m31829 4885c-62-20-132-84-163-149-82-172-126-562-83-726 27-101 78-168 161-210l69-35 151 1c129 1 165 4 248 27 112 30 192 63 184 75-8 14-51 20-202 32-181 15-252 37-314 99-65 66-82 116-87 276-7 183 17 276 100 392 42 60 116 106 227 143 175 58 152 80-90 86-118 3-166 0-201-11z"/>
<path d="m25655 4879c-126-4-241-10-255-11-14-2 97-18 245-36 327-40 414-55 508-89 158-57 222-129 178-200-43-69-180-109-416-122-200-11-256-29-331-105-35-36-54-66-63-99-33-115 20-256 142-383 107-110 125-98 56 36-97 191-40 300 156 300 156 0 289-61 473-218 66-55 178-132 194-132 18 0 7 34-26 79-84 115-122 233-113 351 5 64 13 89 56 175 88 172 99 234 59 315-29 57-102 102-202 126-88 21-333 26-661 13z"/>
<path d="m33521 4756c-21-25-31-110-37-321-9-288 13-535 47-535 10 0 27 35 54 113 37 105 125 193 218 218 160 43 348-71 477-289 107-181 125-176 124 36-1 231-33 371-99 437-53 53-118 62-278 40-201-28-289-12-366 66-39 38-66 90-92 174-21 70-31 82-48 61z"/>
</g>
</svg>
